<svg width="11" height="10" viewBox="0 0 11 10" fill="none" xmlns="http://www.w3.org/2000/svg">
<path d="M10.7339 2.02025C10.5632 1.62491 10.3171 1.26666 10.0094 0.965546C9.7014 0.663536 9.33829 0.423534 8.9398 0.258589C8.52658 0.086873 8.08339 -0.00102131 7.63594 8.95334e-06C7.00821 8.95334e-06 6.39576 0.171971 5.86352 0.496789C5.73619 0.574491 5.61523 0.659835 5.50063 0.752822C5.38603 0.659835 5.26507 0.574491 5.13774 0.496789C4.6055 0.171971 3.99305 8.95334e-06 3.36532 8.95334e-06C2.9133 8.95334e-06 2.47528 0.0866271 2.06146 0.258589C1.66165 0.424183 1.30131 0.662382 0.991896 0.965546C0.683755 1.26632 0.437603 1.62465 0.267392 2.02025C0.0904039 2.43168 0 2.8686 0 3.31825C0 3.74242 0.086584 4.18443 0.258479 4.63408C0.402361 5.00984 0.608635 5.39963 0.872206 5.79323C1.28985 6.41611 1.8641 7.06575 2.57715 7.7243C3.75876 8.81595 4.92892 9.57003 4.97858 9.6006L5.28035 9.79422C5.41405 9.87956 5.58594 9.87956 5.71964 9.79422L6.02141 9.6006C6.07107 9.56876 7.23995 8.81595 8.42284 7.7243C9.13588 7.06575 9.71014 6.41611 10.1278 5.79323C10.3914 5.39963 10.5989 5.00984 10.7415 4.63408C10.9134 4.18443 11 3.74242 11 3.31825C11.0013 2.8686 10.9109 2.43168 10.7339 2.02025Z" fill="black" fill-opacity="0.35"/>
</svg>
